<mxfile host="app.diagrams.net" modified="2024-05-20T20:54:08.504Z" agent="Mozilla/5.0 (Windows NT 10.0; Win64; x64; rv:126.0) Gecko/20100101 Firefox/126.0" etag="32g3_0WAzpeMgfw8wyTn" version="24.3.1" type="github" pages="3">
  <diagram id="DoXXhwDdPZzILl0RqrKV" name="Page-1">
    <mxGraphModel dx="1674" dy="774" grid="1" gridSize="10" guides="1" tooltips="1" connect="1" arrows="1" fold="1" page="1" pageScale="1" pageWidth="850" pageHeight="1100" math="0" shadow="0">
      <root>
        <mxCell id="0" />
        <mxCell id="1" parent="0" />
        <mxCell id="z7P5VKA3RB3ijGh97ngR-2" value="Time-base RTL" style="text;strokeColor=none;fillColor=none;html=1;fontSize=24;fontStyle=1;verticalAlign=middle;align=center;" parent="1" vertex="1">
          <mxGeometry x="339" y="20" width="173" height="40" as="geometry" />
        </mxCell>
        <mxCell id="z7P5VKA3RB3ijGh97ngR-3" value="" style="endArrow=classic;html=1;" parent="1" edge="1">
          <mxGeometry width="50" height="50" relative="1" as="geometry">
            <mxPoint x="129" y="200" as="sourcePoint" />
            <mxPoint x="169" y="200" as="targetPoint" />
          </mxGeometry>
        </mxCell>
        <mxCell id="z7P5VKA3RB3ijGh97ngR-4" value="tcren" style="text;html=1;strokeColor=none;fillColor=none;align=center;verticalAlign=middle;whiteSpace=wrap;rounded=0;" parent="1" vertex="1">
          <mxGeometry x="30" y="176" width="120" height="20" as="geometry" />
        </mxCell>
        <mxCell id="z7P5VKA3RB3ijGh97ngR-5" value="register logic" style="rounded=0;whiteSpace=wrap;html=1;" parent="1" vertex="1">
          <mxGeometry x="170" y="160" width="119" height="210" as="geometry" />
        </mxCell>
        <mxCell id="z7P5VKA3RB3ijGh97ngR-6" value="" style="endArrow=classic;html=1;exitX=0.75;exitY=1;exitDx=0;exitDy=0;entryX=0;entryY=0.182;entryDx=0;entryDy=0;entryPerimeter=0;" parent="1" target="z7P5VKA3RB3ijGh97ngR-14" edge="1">
          <mxGeometry width="50" height="50" relative="1" as="geometry">
            <mxPoint x="289" y="196" as="sourcePoint" />
            <mxPoint x="339" y="196" as="targetPoint" />
          </mxGeometry>
        </mxCell>
        <mxCell id="z7P5VKA3RB3ijGh97ngR-7" value="" style="endArrow=none;html=1;" parent="1" edge="1">
          <mxGeometry width="50" height="50" relative="1" as="geometry">
            <mxPoint x="434" y="207.75" as="sourcePoint" />
            <mxPoint x="444" y="187.75" as="targetPoint" />
          </mxGeometry>
        </mxCell>
        <mxCell id="z7P5VKA3RB3ijGh97ngR-8" value="31:0" style="text;html=1;strokeColor=none;fillColor=none;align=center;verticalAlign=middle;whiteSpace=wrap;rounded=0;" parent="1" vertex="1">
          <mxGeometry x="359" y="200" width="110" height="20" as="geometry" />
        </mxCell>
        <mxCell id="z7P5VKA3RB3ijGh97ngR-10" style="edgeStyle=orthogonalEdgeStyle;rounded=0;orthogonalLoop=1;jettySize=auto;html=1;exitX=1;exitY=0.25;exitDx=0;exitDy=0;entryX=0.5;entryY=0;entryDx=0;entryDy=0;" parent="1" source="z7P5VKA3RB3ijGh97ngR-14" target="z7P5VKA3RB3ijGh97ngR-5" edge="1">
          <mxGeometry relative="1" as="geometry">
            <Array as="points">
              <mxPoint x="603" y="210" />
              <mxPoint x="603" y="110" />
              <mxPoint x="230" y="110" />
            </Array>
          </mxGeometry>
        </mxCell>
        <mxCell id="z7P5VKA3RB3ijGh97ngR-11" style="edgeStyle=orthogonalEdgeStyle;rounded=0;orthogonalLoop=1;jettySize=auto;html=1;exitX=1;exitY=0.25;exitDx=0;exitDy=0;" parent="1" source="z7P5VKA3RB3ijGh97ngR-14" edge="1">
          <mxGeometry relative="1" as="geometry">
            <mxPoint x="740" y="223" as="targetPoint" />
          </mxGeometry>
        </mxCell>
        <mxCell id="z7P5VKA3RB3ijGh97ngR-14" value="" style="rounded=0;whiteSpace=wrap;html=1;" parent="1" vertex="1">
          <mxGeometry x="464" y="157.75" width="119" height="210" as="geometry" />
        </mxCell>
        <mxCell id="z7P5VKA3RB3ijGh97ngR-15" value="" style="triangle;whiteSpace=wrap;html=1;" parent="1" vertex="1">
          <mxGeometry x="464" y="357.25" width="10" height="10" as="geometry" />
        </mxCell>
        <mxCell id="z7P5VKA3RB3ijGh97ngR-16" value="" style="ellipse;whiteSpace=wrap;html=1;aspect=fixed;" parent="1" vertex="1">
          <mxGeometry x="474" y="367.25" width="10" height="10" as="geometry" />
        </mxCell>
        <mxCell id="z7P5VKA3RB3ijGh97ngR-17" value="" style="endArrow=none;html=1;" parent="1" edge="1">
          <mxGeometry width="50" height="50" relative="1" as="geometry">
            <mxPoint x="640" y="219.75" as="sourcePoint" />
            <mxPoint x="650" y="199.75" as="targetPoint" />
          </mxGeometry>
        </mxCell>
        <mxCell id="z7P5VKA3RB3ijGh97ngR-18" value="nxt_tcnt" style="text;html=1;align=center;verticalAlign=middle;resizable=0;points=[];autosize=1;strokeColor=none;fillColor=none;" parent="1" vertex="1">
          <mxGeometry x="384" y="165" width="60" height="30" as="geometry" />
        </mxCell>
        <mxCell id="z7P5VKA3RB3ijGh97ngR-19" value="&lt;div&gt;31:0&lt;/div&gt;" style="text;html=1;strokeColor=none;fillColor=none;align=center;verticalAlign=middle;whiteSpace=wrap;rounded=0;" parent="1" vertex="1">
          <mxGeometry x="620" y="215.75" width="35" height="25" as="geometry" />
        </mxCell>
        <mxCell id="z7P5VKA3RB3ijGh97ngR-21" value="D" style="text;html=1;align=center;verticalAlign=middle;resizable=0;points=[];autosize=1;strokeColor=none;fillColor=none;" parent="1" vertex="1">
          <mxGeometry x="464" y="187.75" width="20" height="20" as="geometry" />
        </mxCell>
        <mxCell id="z7P5VKA3RB3ijGh97ngR-22" value="Q" style="text;html=1;align=center;verticalAlign=middle;resizable=0;points=[];autosize=1;strokeColor=none;fillColor=none;" parent="1" vertex="1">
          <mxGeometry x="563" y="203.75" width="20" height="20" as="geometry" />
        </mxCell>
        <mxCell id="z7P5VKA3RB3ijGh97ngR-23" value="tcnt" style="text;html=1;align=center;verticalAlign=middle;resizable=0;points=[];autosize=1;strokeColor=none;fillColor=none;" parent="1" vertex="1">
          <mxGeometry x="374" y="85" width="40" height="30" as="geometry" />
        </mxCell>
        <mxCell id="z7P5VKA3RB3ijGh97ngR-25" style="edgeStyle=orthogonalEdgeStyle;rounded=0;orthogonalLoop=1;jettySize=auto;html=1;exitX=0.5;exitY=1;exitDx=0;exitDy=0;entryX=0;entryY=0.5;entryDx=0;entryDy=0;fontSize=20;" parent="1" source="z7P5VKA3RB3ijGh97ngR-26" target="z7P5VKA3RB3ijGh97ngR-5" edge="1">
          <mxGeometry relative="1" as="geometry" />
        </mxCell>
        <mxCell id="z7P5VKA3RB3ijGh97ngR-26" value="tcrst" style="text;html=1;strokeColor=none;fillColor=none;align=center;verticalAlign=middle;whiteSpace=wrap;rounded=0;" parent="1" vertex="1">
          <mxGeometry x="60" y="220" width="80" height="20" as="geometry" />
        </mxCell>
        <mxCell id="z7P5VKA3RB3ijGh97ngR-27" style="edgeStyle=orthogonalEdgeStyle;rounded=0;orthogonalLoop=1;jettySize=auto;html=1;exitX=1;exitY=0.5;exitDx=0;exitDy=0;entryX=0;entryY=0.75;entryDx=0;entryDy=0;" parent="1" source="z7P5VKA3RB3ijGh97ngR-28" target="z7P5VKA3RB3ijGh97ngR-5" edge="1">
          <mxGeometry relative="1" as="geometry" />
        </mxCell>
        <mxCell id="z7P5VKA3RB3ijGh97ngR-28" value="tarr" style="text;html=1;strokeColor=none;fillColor=none;align=center;verticalAlign=middle;whiteSpace=wrap;rounded=0;" parent="1" vertex="1">
          <mxGeometry x="40" y="290" width="80" height="20" as="geometry" />
        </mxCell>
        <mxCell id="z7P5VKA3RB3ijGh97ngR-34" value="TCNT" style="text;strokeColor=none;fillColor=none;html=1;fontSize=24;fontStyle=1;verticalAlign=middle;align=center;" parent="1" vertex="1">
          <mxGeometry x="583" y="70" width="220" height="40" as="geometry" />
        </mxCell>
        <mxCell id="z7P5VKA3RB3ijGh97ngR-35" value="" style="endArrow=classic;html=1;" parent="1" edge="1">
          <mxGeometry width="50" height="50" relative="1" as="geometry">
            <mxPoint x="138" y="640" as="sourcePoint" />
            <mxPoint x="178" y="640" as="targetPoint" />
          </mxGeometry>
        </mxCell>
        <mxCell id="z7P5VKA3RB3ijGh97ngR-36" value="tpsc" style="text;html=1;strokeColor=none;fillColor=none;align=center;verticalAlign=middle;whiteSpace=wrap;rounded=0;" parent="1" vertex="1">
          <mxGeometry x="39" y="616" width="120" height="20" as="geometry" />
        </mxCell>
        <mxCell id="z7P5VKA3RB3ijGh97ngR-37" value="register logic" style="rounded=0;whiteSpace=wrap;html=1;" parent="1" vertex="1">
          <mxGeometry x="179" y="600" width="119" height="210" as="geometry" />
        </mxCell>
        <mxCell id="z7P5VKA3RB3ijGh97ngR-38" value="" style="endArrow=classic;html=1;exitX=0.75;exitY=1;exitDx=0;exitDy=0;entryX=0;entryY=0.182;entryDx=0;entryDy=0;entryPerimeter=0;" parent="1" target="z7P5VKA3RB3ijGh97ngR-43" edge="1">
          <mxGeometry width="50" height="50" relative="1" as="geometry">
            <mxPoint x="298" y="636" as="sourcePoint" />
            <mxPoint x="348" y="636" as="targetPoint" />
          </mxGeometry>
        </mxCell>
        <mxCell id="z7P5VKA3RB3ijGh97ngR-39" value="" style="endArrow=none;html=1;" parent="1" edge="1">
          <mxGeometry width="50" height="50" relative="1" as="geometry">
            <mxPoint x="443" y="647.75" as="sourcePoint" />
            <mxPoint x="453" y="627.75" as="targetPoint" />
          </mxGeometry>
        </mxCell>
        <mxCell id="z7P5VKA3RB3ijGh97ngR-40" value="31:0" style="text;html=1;strokeColor=none;fillColor=none;align=center;verticalAlign=middle;whiteSpace=wrap;rounded=0;" parent="1" vertex="1">
          <mxGeometry x="368" y="640" width="110" height="20" as="geometry" />
        </mxCell>
        <mxCell id="z7P5VKA3RB3ijGh97ngR-41" style="edgeStyle=orthogonalEdgeStyle;rounded=0;orthogonalLoop=1;jettySize=auto;html=1;exitX=1;exitY=0.25;exitDx=0;exitDy=0;entryX=0.5;entryY=0;entryDx=0;entryDy=0;" parent="1" source="z7P5VKA3RB3ijGh97ngR-43" target="z7P5VKA3RB3ijGh97ngR-37" edge="1">
          <mxGeometry relative="1" as="geometry">
            <Array as="points">
              <mxPoint x="612" y="650" />
              <mxPoint x="612" y="550" />
              <mxPoint x="239" y="550" />
            </Array>
          </mxGeometry>
        </mxCell>
        <mxCell id="z7P5VKA3RB3ijGh97ngR-42" style="edgeStyle=orthogonalEdgeStyle;rounded=0;orthogonalLoop=1;jettySize=auto;html=1;exitX=1;exitY=0.25;exitDx=0;exitDy=0;" parent="1" source="z7P5VKA3RB3ijGh97ngR-43" edge="1">
          <mxGeometry relative="1" as="geometry">
            <mxPoint x="749" y="663" as="targetPoint" />
          </mxGeometry>
        </mxCell>
        <mxCell id="z7P5VKA3RB3ijGh97ngR-43" value="" style="rounded=0;whiteSpace=wrap;html=1;" parent="1" vertex="1">
          <mxGeometry x="473" y="597.75" width="119" height="210" as="geometry" />
        </mxCell>
        <mxCell id="z7P5VKA3RB3ijGh97ngR-44" value="" style="triangle;whiteSpace=wrap;html=1;" parent="1" vertex="1">
          <mxGeometry x="473" y="797.25" width="10" height="10" as="geometry" />
        </mxCell>
        <mxCell id="z7P5VKA3RB3ijGh97ngR-45" value="" style="ellipse;whiteSpace=wrap;html=1;aspect=fixed;" parent="1" vertex="1">
          <mxGeometry x="483" y="807.25" width="10" height="10" as="geometry" />
        </mxCell>
        <mxCell id="z7P5VKA3RB3ijGh97ngR-46" value="" style="endArrow=none;html=1;" parent="1" edge="1">
          <mxGeometry width="50" height="50" relative="1" as="geometry">
            <mxPoint x="649" y="659.75" as="sourcePoint" />
            <mxPoint x="659" y="639.75" as="targetPoint" />
          </mxGeometry>
        </mxCell>
        <mxCell id="z7P5VKA3RB3ijGh97ngR-47" value="nxt_psc_cnt" style="text;html=1;align=center;verticalAlign=middle;resizable=0;points=[];autosize=1;strokeColor=none;fillColor=none;" parent="1" vertex="1">
          <mxGeometry x="378" y="605" width="90" height="30" as="geometry" />
        </mxCell>
        <mxCell id="z7P5VKA3RB3ijGh97ngR-48" value="&lt;div&gt;31:0&lt;/div&gt;" style="text;html=1;strokeColor=none;fillColor=none;align=center;verticalAlign=middle;whiteSpace=wrap;rounded=0;" parent="1" vertex="1">
          <mxGeometry x="629" y="655.75" width="35" height="25" as="geometry" />
        </mxCell>
        <mxCell id="z7P5VKA3RB3ijGh97ngR-49" value="D" style="text;html=1;align=center;verticalAlign=middle;resizable=0;points=[];autosize=1;strokeColor=none;fillColor=none;" parent="1" vertex="1">
          <mxGeometry x="473" y="627.75" width="20" height="20" as="geometry" />
        </mxCell>
        <mxCell id="z7P5VKA3RB3ijGh97ngR-50" value="Q" style="text;html=1;align=center;verticalAlign=middle;resizable=0;points=[];autosize=1;strokeColor=none;fillColor=none;" parent="1" vertex="1">
          <mxGeometry x="572" y="643.75" width="20" height="20" as="geometry" />
        </mxCell>
        <mxCell id="z7P5VKA3RB3ijGh97ngR-51" value="psc_cnt" style="text;html=1;align=center;verticalAlign=middle;resizable=0;points=[];autosize=1;strokeColor=none;fillColor=none;" parent="1" vertex="1">
          <mxGeometry x="368" y="525" width="70" height="30" as="geometry" />
        </mxCell>
        <mxCell id="z7P5VKA3RB3ijGh97ngR-56" value="Prescaler" style="text;strokeColor=none;fillColor=none;html=1;fontSize=24;fontStyle=1;verticalAlign=middle;align=center;" parent="1" vertex="1">
          <mxGeometry x="592" y="510" width="220" height="40" as="geometry" />
        </mxCell>
        <mxCell id="z7P5VKA3RB3ijGh97ngR-57" value="" style="endArrow=none;html=1;" parent="1" edge="1">
          <mxGeometry width="50" height="50" relative="1" as="geometry">
            <mxPoint x="146.5" y="650" as="sourcePoint" />
            <mxPoint x="156.5" y="630" as="targetPoint" />
          </mxGeometry>
        </mxCell>
        <mxCell id="z7P5VKA3RB3ijGh97ngR-58" value="&lt;div&gt;31:0&lt;/div&gt;" style="text;html=1;strokeColor=none;fillColor=none;align=center;verticalAlign=middle;whiteSpace=wrap;rounded=0;" parent="1" vertex="1">
          <mxGeometry x="126.5" y="646" width="35" height="25" as="geometry" />
        </mxCell>
        <mxCell id="z7P5VKA3RB3ijGh97ngR-59" value="" style="endArrow=classic;html=1;" parent="1" edge="1">
          <mxGeometry width="50" height="50" relative="1" as="geometry">
            <mxPoint x="130" y="354" as="sourcePoint" />
            <mxPoint x="170" y="354" as="targetPoint" />
          </mxGeometry>
        </mxCell>
        <mxCell id="z7P5VKA3RB3ijGh97ngR-60" value="psc_cnt" style="text;html=1;strokeColor=none;fillColor=none;align=center;verticalAlign=middle;whiteSpace=wrap;rounded=0;" parent="1" vertex="1">
          <mxGeometry x="31" y="330" width="120" height="20" as="geometry" />
        </mxCell>
        <mxCell id="z7P5VKA3RB3ijGh97ngR-61" value="" style="endArrow=none;html=1;" parent="1" edge="1">
          <mxGeometry width="50" height="50" relative="1" as="geometry">
            <mxPoint x="138.5" y="364" as="sourcePoint" />
            <mxPoint x="148.5" y="344" as="targetPoint" />
          </mxGeometry>
        </mxCell>
        <mxCell id="z7P5VKA3RB3ijGh97ngR-62" value="&lt;div&gt;31:0&lt;/div&gt;" style="text;html=1;strokeColor=none;fillColor=none;align=center;verticalAlign=middle;whiteSpace=wrap;rounded=0;" parent="1" vertex="1">
          <mxGeometry x="118.5" y="360" width="35" height="25" as="geometry" />
        </mxCell>
        <mxCell id="tTROXcHxd5RjfkV362o5-7" style="edgeStyle=orthogonalEdgeStyle;rounded=0;orthogonalLoop=1;jettySize=auto;html=1;exitX=1;exitY=0.5;exitDx=0;exitDy=0;entryX=0.25;entryY=1;entryDx=0;entryDy=0;" parent="1" source="tTROXcHxd5RjfkV362o5-2" target="z7P5VKA3RB3ijGh97ngR-5" edge="1">
          <mxGeometry relative="1" as="geometry" />
        </mxCell>
        <mxCell id="tTROXcHxd5RjfkV362o5-2" value="tpsc" style="text;html=1;strokeColor=none;fillColor=none;align=center;verticalAlign=middle;whiteSpace=wrap;rounded=0;" parent="1" vertex="1">
          <mxGeometry x="100" y="410" width="53.5" height="20" as="geometry" />
        </mxCell>
        <mxCell id="tTROXcHxd5RjfkV362o5-3" value="" style="endArrow=none;html=1;" parent="1" edge="1">
          <mxGeometry width="50" height="50" relative="1" as="geometry">
            <mxPoint x="173.5" y="430" as="sourcePoint" />
            <mxPoint x="183.5" y="410" as="targetPoint" />
          </mxGeometry>
        </mxCell>
        <mxCell id="tTROXcHxd5RjfkV362o5-4" value="&lt;div&gt;31:0&lt;/div&gt;" style="text;html=1;strokeColor=none;fillColor=none;align=center;verticalAlign=middle;whiteSpace=wrap;rounded=0;" parent="1" vertex="1">
          <mxGeometry x="153.5" y="426" width="35" height="25" as="geometry" />
        </mxCell>
      </root>
    </mxGraphModel>
  </diagram>
  <diagram id="0VLV0tMc2H1Wie2A4KIR" name="Page-2">
    <mxGraphModel dx="1674" dy="774" grid="1" gridSize="10" guides="1" tooltips="1" connect="1" arrows="1" fold="1" page="1" pageScale="1" pageWidth="850" pageHeight="1100" math="0" shadow="0">
      <root>
        <mxCell id="0" />
        <mxCell id="1" parent="0" />
        <mxCell id="UOFrsDTStlYBvLq43tFu-3" style="edgeStyle=orthogonalEdgeStyle;rounded=0;orthogonalLoop=1;jettySize=auto;html=1;exitX=0.217;exitY=0.994;exitDx=0;exitDy=0;entryX=0;entryY=0;entryDx=0;entryDy=0;exitPerimeter=0;" parent="1" source="UOFrsDTStlYBvLq43tFu-1" target="UOFrsDTStlYBvLq43tFu-2" edge="1">
          <mxGeometry relative="1" as="geometry">
            <Array as="points">
              <mxPoint x="170" y="289" />
              <mxPoint x="170" y="400" />
              <mxPoint x="200" y="400" />
            </Array>
          </mxGeometry>
        </mxCell>
        <mxCell id="UOFrsDTStlYBvLq43tFu-1" value="Generic Bus (APB?)" style="rounded=0;whiteSpace=wrap;html=1;" parent="1" vertex="1">
          <mxGeometry x="50" y="200" width="690" height="90" as="geometry" />
        </mxCell>
        <mxCell id="J0Dz7A4SuMLwubc2eF71-9" style="edgeStyle=orthogonalEdgeStyle;rounded=0;orthogonalLoop=1;jettySize=auto;html=1;exitX=0.5;exitY=0;exitDx=0;exitDy=0;" parent="1" source="UOFrsDTStlYBvLq43tFu-2" edge="1">
          <mxGeometry relative="1" as="geometry">
            <mxPoint x="405" y="290" as="targetPoint" />
            <Array as="points">
              <mxPoint x="405" y="420" />
              <mxPoint x="405" y="355" />
            </Array>
          </mxGeometry>
        </mxCell>
        <mxCell id="UOFrsDTStlYBvLq43tFu-2" value="Timer" style="rounded=0;whiteSpace=wrap;html=1;" parent="1" vertex="1">
          <mxGeometry x="200" y="420" width="340" height="100" as="geometry" />
        </mxCell>
        <mxCell id="UOFrsDTStlYBvLq43tFu-5" value="wen" style="text;html=1;align=center;verticalAlign=middle;whiteSpace=wrap;rounded=0;" parent="1" vertex="1">
          <mxGeometry x="140" y="350" width="30" height="30" as="geometry" />
        </mxCell>
        <mxCell id="UOFrsDTStlYBvLq43tFu-6" value="ren" style="text;html=1;align=center;verticalAlign=middle;whiteSpace=wrap;rounded=0;" parent="1" vertex="1">
          <mxGeometry x="190" y="350" width="30" height="30" as="geometry" />
        </mxCell>
        <mxCell id="UOFrsDTStlYBvLq43tFu-7" style="edgeStyle=orthogonalEdgeStyle;rounded=0;orthogonalLoop=1;jettySize=auto;html=1;exitX=0.25;exitY=1;exitDx=0;exitDy=0;entryX=0.068;entryY=0.003;entryDx=0;entryDy=0;entryPerimeter=0;" parent="1" source="UOFrsDTStlYBvLq43tFu-1" target="UOFrsDTStlYBvLq43tFu-2" edge="1">
          <mxGeometry relative="1" as="geometry" />
        </mxCell>
        <mxCell id="UOFrsDTStlYBvLq43tFu-9" style="edgeStyle=orthogonalEdgeStyle;rounded=0;orthogonalLoop=1;jettySize=auto;html=1;exitX=0.25;exitY=1;exitDx=0;exitDy=0;entryX=0.17;entryY=0.003;entryDx=0;entryDy=0;entryPerimeter=0;" parent="1" source="UOFrsDTStlYBvLq43tFu-1" target="UOFrsDTStlYBvLq43tFu-2" edge="1">
          <mxGeometry relative="1" as="geometry">
            <Array as="points">
              <mxPoint x="258" y="290" />
            </Array>
          </mxGeometry>
        </mxCell>
        <mxCell id="UOFrsDTStlYBvLq43tFu-10" value="addr" style="text;html=1;align=center;verticalAlign=middle;whiteSpace=wrap;rounded=0;" parent="1" vertex="1">
          <mxGeometry x="230" y="350" width="30" height="30" as="geometry" />
        </mxCell>
        <mxCell id="UOFrsDTStlYBvLq43tFu-12" value="" style="endArrow=none;html=1;rounded=0;" parent="1" edge="1">
          <mxGeometry width="50" height="50" relative="1" as="geometry">
            <mxPoint x="250" y="390" as="sourcePoint" />
            <mxPoint x="270" y="380" as="targetPoint" />
          </mxGeometry>
        </mxCell>
        <mxCell id="UOFrsDTStlYBvLq43tFu-13" value="32" style="text;html=1;align=center;verticalAlign=middle;whiteSpace=wrap;rounded=0;" parent="1" vertex="1">
          <mxGeometry x="237" y="377" width="60" height="30" as="geometry" />
        </mxCell>
        <mxCell id="J0Dz7A4SuMLwubc2eF71-1" style="edgeStyle=orthogonalEdgeStyle;rounded=0;orthogonalLoop=1;jettySize=auto;html=1;exitX=0.25;exitY=1;exitDx=0;exitDy=0;entryX=0.327;entryY=-0.011;entryDx=0;entryDy=0;entryPerimeter=0;" parent="1" source="UOFrsDTStlYBvLq43tFu-1" target="UOFrsDTStlYBvLq43tFu-2" edge="1">
          <mxGeometry relative="1" as="geometry">
            <Array as="points">
              <mxPoint x="311" y="290" />
            </Array>
          </mxGeometry>
        </mxCell>
        <mxCell id="J0Dz7A4SuMLwubc2eF71-2" value="wdata" style="text;html=1;align=center;verticalAlign=middle;whiteSpace=wrap;rounded=0;" parent="1" vertex="1">
          <mxGeometry x="280" y="350" width="30" height="30" as="geometry" />
        </mxCell>
        <mxCell id="J0Dz7A4SuMLwubc2eF71-3" value="" style="endArrow=none;html=1;rounded=0;" parent="1" edge="1">
          <mxGeometry width="50" height="50" relative="1" as="geometry">
            <mxPoint x="303" y="390" as="sourcePoint" />
            <mxPoint x="323" y="380" as="targetPoint" />
          </mxGeometry>
        </mxCell>
        <mxCell id="J0Dz7A4SuMLwubc2eF71-4" value="32" style="text;html=1;align=center;verticalAlign=middle;whiteSpace=wrap;rounded=0;" parent="1" vertex="1">
          <mxGeometry x="290" y="377" width="60" height="30" as="geometry" />
        </mxCell>
        <mxCell id="J0Dz7A4SuMLwubc2eF71-5" style="edgeStyle=orthogonalEdgeStyle;rounded=0;orthogonalLoop=1;jettySize=auto;html=1;exitX=0.25;exitY=1;exitDx=0;exitDy=0;entryX=0.48;entryY=-0.011;entryDx=0;entryDy=0;entryPerimeter=0;" parent="1" source="UOFrsDTStlYBvLq43tFu-1" target="UOFrsDTStlYBvLq43tFu-2" edge="1">
          <mxGeometry relative="1" as="geometry">
            <Array as="points">
              <mxPoint x="363" y="290" />
            </Array>
          </mxGeometry>
        </mxCell>
        <mxCell id="J0Dz7A4SuMLwubc2eF71-6" value="strobe" style="text;html=1;align=center;verticalAlign=middle;whiteSpace=wrap;rounded=0;" parent="1" vertex="1">
          <mxGeometry x="330" y="350" width="30" height="30" as="geometry" />
        </mxCell>
        <mxCell id="J0Dz7A4SuMLwubc2eF71-7" value="" style="endArrow=none;html=1;rounded=0;" parent="1" edge="1">
          <mxGeometry width="50" height="50" relative="1" as="geometry">
            <mxPoint x="353" y="390" as="sourcePoint" />
            <mxPoint x="373" y="380" as="targetPoint" />
          </mxGeometry>
        </mxCell>
        <mxCell id="J0Dz7A4SuMLwubc2eF71-8" value="4" style="text;html=1;align=center;verticalAlign=middle;whiteSpace=wrap;rounded=0;" parent="1" vertex="1">
          <mxGeometry x="360" y="377" width="20" height="30" as="geometry" />
        </mxCell>
        <mxCell id="J0Dz7A4SuMLwubc2eF71-10" value="" style="endArrow=none;html=1;rounded=0;" parent="1" edge="1">
          <mxGeometry width="50" height="50" relative="1" as="geometry">
            <mxPoint x="393" y="390" as="sourcePoint" />
            <mxPoint x="413" y="380" as="targetPoint" />
          </mxGeometry>
        </mxCell>
        <mxCell id="J0Dz7A4SuMLwubc2eF71-11" value="32" style="text;html=1;align=center;verticalAlign=middle;whiteSpace=wrap;rounded=0;" parent="1" vertex="1">
          <mxGeometry x="390" y="377" width="50" height="30" as="geometry" />
        </mxCell>
        <mxCell id="J0Dz7A4SuMLwubc2eF71-12" value="rdata" style="text;html=1;align=center;verticalAlign=middle;whiteSpace=wrap;rounded=0;" parent="1" vertex="1">
          <mxGeometry x="374" y="350" width="30" height="30" as="geometry" />
        </mxCell>
        <mxCell id="J0Dz7A4SuMLwubc2eF71-14" style="edgeStyle=orthogonalEdgeStyle;rounded=0;orthogonalLoop=1;jettySize=auto;html=1;exitX=0.75;exitY=0;exitDx=0;exitDy=0;entryX=0.587;entryY=0.984;entryDx=0;entryDy=0;entryPerimeter=0;" parent="1" source="UOFrsDTStlYBvLq43tFu-2" target="UOFrsDTStlYBvLq43tFu-1" edge="1">
          <mxGeometry relative="1" as="geometry" />
        </mxCell>
        <mxCell id="J0Dz7A4SuMLwubc2eF71-17" value="error" style="text;html=1;align=center;verticalAlign=middle;whiteSpace=wrap;rounded=0;" parent="1" vertex="1">
          <mxGeometry x="425" y="350" width="30" height="30" as="geometry" />
        </mxCell>
        <mxCell id="J0Dz7A4SuMLwubc2eF71-19" value="request_stall" style="text;html=1;align=center;verticalAlign=middle;whiteSpace=wrap;rounded=0;" parent="1" vertex="1">
          <mxGeometry x="470" y="350" width="80" height="30" as="geometry" />
        </mxCell>
        <mxCell id="J0Dz7A4SuMLwubc2eF71-20" style="edgeStyle=orthogonalEdgeStyle;rounded=0;orthogonalLoop=1;jettySize=auto;html=1;exitX=1;exitY=0;exitDx=0;exitDy=0;entryX=0.709;entryY=1.004;entryDx=0;entryDy=0;entryPerimeter=0;" parent="1" source="UOFrsDTStlYBvLq43tFu-2" target="UOFrsDTStlYBvLq43tFu-1" edge="1">
          <mxGeometry relative="1" as="geometry" />
        </mxCell>
      </root>
    </mxGraphModel>
  </diagram>
  <diagram id="U6KI4l30yy0JX19nmwuE" name="Page-3">
    <mxGraphModel dx="1674" dy="774" grid="1" gridSize="10" guides="1" tooltips="1" connect="1" arrows="1" fold="1" page="1" pageScale="1" pageWidth="850" pageHeight="1100" math="0" shadow="0">
      <root>
        <mxCell id="0" />
        <mxCell id="1" parent="0" />
        <mxCell id="F1QgXw5RZE7JSTDuxs1F-1" value="wen" style="text;html=1;align=center;verticalAlign=middle;whiteSpace=wrap;rounded=0;" parent="1" vertex="1">
          <mxGeometry x="70" y="320" width="30" height="30" as="geometry" />
        </mxCell>
        <mxCell id="F1QgXw5RZE7JSTDuxs1F-2" value="ren" style="text;html=1;align=center;verticalAlign=middle;whiteSpace=wrap;rounded=0;" parent="1" vertex="1">
          <mxGeometry x="70" y="270" width="30" height="30" as="geometry" />
        </mxCell>
        <mxCell id="F1QgXw5RZE7JSTDuxs1F-3" value="addr" style="text;html=1;align=center;verticalAlign=middle;whiteSpace=wrap;rounded=0;" parent="1" vertex="1">
          <mxGeometry x="70" y="213" width="30" height="30" as="geometry" />
        </mxCell>
        <mxCell id="F1QgXw5RZE7JSTDuxs1F-4" value="" style="endArrow=none;html=1;rounded=0;" parent="1" edge="1">
          <mxGeometry width="50" height="50" relative="1" as="geometry">
            <mxPoint x="110" y="233" as="sourcePoint" />
            <mxPoint x="130" y="223" as="targetPoint" />
          </mxGeometry>
        </mxCell>
        <mxCell id="F1QgXw5RZE7JSTDuxs1F-5" value="32" style="text;html=1;align=center;verticalAlign=middle;whiteSpace=wrap;rounded=0;" parent="1" vertex="1">
          <mxGeometry x="110" y="220" width="30" height="30" as="geometry" />
        </mxCell>
        <mxCell id="F1QgXw5RZE7JSTDuxs1F-6" value="wdata" style="text;html=1;align=center;verticalAlign=middle;whiteSpace=wrap;rounded=0;" parent="1" vertex="1">
          <mxGeometry x="70" y="170" width="30" height="30" as="geometry" />
        </mxCell>
        <mxCell id="F1QgXw5RZE7JSTDuxs1F-9" value="strobe" style="text;html=1;align=center;verticalAlign=middle;whiteSpace=wrap;rounded=0;" parent="1" vertex="1">
          <mxGeometry x="70" y="100" width="30" height="30" as="geometry" />
        </mxCell>
        <mxCell id="F1QgXw5RZE7JSTDuxs1F-10" value="" style="endArrow=none;html=1;rounded=0;" parent="1" edge="1">
          <mxGeometry width="50" height="50" relative="1" as="geometry">
            <mxPoint x="93" y="140" as="sourcePoint" />
            <mxPoint x="113" y="130" as="targetPoint" />
          </mxGeometry>
        </mxCell>
        <mxCell id="F1QgXw5RZE7JSTDuxs1F-11" value="4" style="text;html=1;align=center;verticalAlign=middle;whiteSpace=wrap;rounded=0;" parent="1" vertex="1">
          <mxGeometry x="100" y="127" width="20" height="30" as="geometry" />
        </mxCell>
        <mxCell id="F1QgXw5RZE7JSTDuxs1F-14" value="rdata" style="text;html=1;align=center;verticalAlign=middle;whiteSpace=wrap;rounded=0;" parent="1" vertex="1">
          <mxGeometry x="760" y="180" width="30" height="30" as="geometry" />
        </mxCell>
        <mxCell id="F1QgXw5RZE7JSTDuxs1F-15" value="error" style="text;html=1;align=center;verticalAlign=middle;whiteSpace=wrap;rounded=0;" parent="1" vertex="1">
          <mxGeometry x="760" y="130" width="30" height="30" as="geometry" />
        </mxCell>
        <mxCell id="F1QgXw5RZE7JSTDuxs1F-16" value="request_stall" style="text;html=1;align=center;verticalAlign=middle;whiteSpace=wrap;rounded=0;" parent="1" vertex="1">
          <mxGeometry x="730" y="90" width="80" height="30" as="geometry" />
        </mxCell>
        <mxCell id="uMSl9q2nBGAL4kRPPaHZ-4" value="" style="endArrow=none;html=1;rounded=0;" parent="1" edge="1">
          <mxGeometry width="50" height="50" relative="1" as="geometry">
            <mxPoint x="110" y="193" as="sourcePoint" />
            <mxPoint x="130" y="183" as="targetPoint" />
          </mxGeometry>
        </mxCell>
        <mxCell id="uMSl9q2nBGAL4kRPPaHZ-5" value="32" style="text;html=1;align=center;verticalAlign=middle;whiteSpace=wrap;rounded=0;" parent="1" vertex="1">
          <mxGeometry x="110" y="180" width="30" height="30" as="geometry" />
        </mxCell>
        <mxCell id="uMSl9q2nBGAL4kRPPaHZ-6" value="" style="endArrow=none;html=1;rounded=0;" parent="1" edge="1">
          <mxGeometry width="50" height="50" relative="1" as="geometry">
            <mxPoint x="800" y="203" as="sourcePoint" />
            <mxPoint x="820" y="193" as="targetPoint" />
          </mxGeometry>
        </mxCell>
        <mxCell id="uMSl9q2nBGAL4kRPPaHZ-7" value="32" style="text;html=1;align=center;verticalAlign=middle;whiteSpace=wrap;rounded=0;" parent="1" vertex="1">
          <mxGeometry x="800" y="190" width="30" height="30" as="geometry" />
        </mxCell>
        <mxCell id="liKidStu4S2gYdici5ND-1" value="t_in" style="text;html=1;align=center;verticalAlign=middle;whiteSpace=wrap;rounded=0;" vertex="1" parent="1">
          <mxGeometry x="100" y="500" width="30" height="30" as="geometry" />
        </mxCell>
        <mxCell id="liKidStu4S2gYdici5ND-2" value="t_out" style="text;html=1;align=center;verticalAlign=middle;whiteSpace=wrap;rounded=0;" vertex="1" parent="1">
          <mxGeometry x="760" y="500" width="30" height="30" as="geometry" />
        </mxCell>
        <mxCell id="aOVrWrjgvoJSjb1ijP1g-1" value="t_irq" style="text;html=1;align=center;verticalAlign=middle;whiteSpace=wrap;rounded=0;" vertex="1" parent="1">
          <mxGeometry x="760" y="570" width="30" height="30" as="geometry" />
        </mxCell>
        <mxCell id="aOVrWrjgvoJSjb1ijP1g-2" value="t_oe" style="text;html=1;align=center;verticalAlign=middle;whiteSpace=wrap;rounded=0;" vertex="1" parent="1">
          <mxGeometry x="760" y="650" width="30" height="30" as="geometry" />
        </mxCell>
        <mxCell id="aOVrWrjgvoJSjb1ijP1g-3" value="tc_irq" style="text;html=1;align=center;verticalAlign=middle;whiteSpace=wrap;rounded=0;" vertex="1" parent="1">
          <mxGeometry x="760" y="700" width="30" height="30" as="geometry" />
        </mxCell>
      </root>
    </mxGraphModel>
  </diagram>
</mxfile>
